<svg id="Layer_1" data-name="Layer 1" xmlns="http://www.w3.org/2000/svg" viewBox="0 0 354.97 112.14"><defs><style>.cls-1{fill:#2a6db6;}.cls-2{fill:#415a69;}</style></defs><path class="cls-1" d="M147.4,199.79a57.23,57.23,0,0,0-6.16-13.67,55.49,55.49,0,0,0-32.2-24h0a56.06,56.06,0,0,1-28.34,91.57,55.7,55.7,0,0,1-28.92-.44,56.08,56.08,0,0,0,95.64-53.44Z" transform="translate(-37.62 -159.97)"/><path class="cls-2" d="M80.69,253.67a56,56,0,0,1,41.18-66.14A56.23,56.23,0,0,0,109,162.1a56.06,56.06,0,0,0-57.26,91.13,55.74,55.74,0,0,0,28.93.44" transform="translate(-37.62 -159.97)"/><path class="cls-2" d="M346.44,184.36l15.09,23.39s10.15-13.53,14.12-19.59c7.15-10.94,17-7.86,17-7.86l-24.12,34.75,22.17,32.8H377.53L361.72,223l-16.46,24.87H332.54l22.56-32.4-21.52-31.09Z" transform="translate(-37.62 -159.97)"/><rect class="cls-2" x="271.74" y="24.39" width="11.54" height="63.49"/><path class="cls-2" d="M321.4,166.45A6.43,6.43,0,1,1,315,160a6.43,6.43,0,0,1,6.43,6.43" transform="translate(-37.62 -159.97)"/><path class="cls-2" d="M297.66,247.77A11.37,11.37,0,0,1,287,237.59h-.26a23.25,23.25,0,0,1-20.6,11.59c-9.78,0-21.5-5.53-21.5-27.29V184.15h11.33v35.68c0,11.84,3.74,19.95,13.9,19.95a16.28,16.28,0,0,0,14.94-10.43,15.56,15.56,0,0,0,1-5.79V184.15h11.84Z" transform="translate(-37.62 -159.97)"/><path class="cls-2" d="M179.87,184.07a11.39,11.39,0,0,1,10.7,10.18h.25a23.26,23.26,0,0,1,20.6-11.59c9.79,0,21.51,5.53,21.51,27.29v37.74H221.6V212c0-11.85-3.74-20-13.91-20-7.6,0-12.88,5.28-14.94,10.43a15.57,15.57,0,0,0-1,5.79v39.41H179.87Z" transform="translate(-37.62 -159.97)"/></svg>